<mxfile host="app.diagrams.net" modified="2024-06-15T18:35:11.412Z" agent="Mozilla/5.0 (Macintosh; Intel Mac OS X 10_15_7) AppleWebKit/537.36 (KHTML, like Gecko) Chrome/125.0.0.0 Safari/537.36" etag="dpWb5RJLyBCfhtXJtSYA" version="24.5.4" type="device">
  <diagram name="Page-1" id="E0r2v8hQ8RtA91Cu_i-V">
    <mxGraphModel dx="3547" dy="1231" grid="1" gridSize="10" guides="1" tooltips="1" connect="1" arrows="1" fold="1" page="1" pageScale="1" pageWidth="827" pageHeight="1169" math="0" shadow="0">
      <root>
        <mxCell id="0" />
        <mxCell id="1" parent="0" />
        <mxCell id="t6AkbpVWKmdAS4iG69or-3" style="edgeStyle=orthogonalEdgeStyle;rounded=0;orthogonalLoop=1;jettySize=auto;html=1;exitX=0.5;exitY=1;exitDx=0;exitDy=0;entryX=0.5;entryY=0;entryDx=0;entryDy=0;" edge="1" parent="1" source="t6AkbpVWKmdAS4iG69or-1" target="t6AkbpVWKmdAS4iG69or-2">
          <mxGeometry relative="1" as="geometry" />
        </mxCell>
        <mxCell id="t6AkbpVWKmdAS4iG69or-1" value="&lt;font style=&quot;font-size: 18px;&quot;&gt;Login Page&lt;/font&gt;" style="rounded=1;whiteSpace=wrap;html=1;" vertex="1" parent="1">
          <mxGeometry x="-110" y="160" width="190" height="60" as="geometry" />
        </mxCell>
        <mxCell id="t6AkbpVWKmdAS4iG69or-13" style="edgeStyle=orthogonalEdgeStyle;rounded=0;orthogonalLoop=1;jettySize=auto;html=1;exitX=0.5;exitY=1;exitDx=0;exitDy=0;entryX=0.5;entryY=0;entryDx=0;entryDy=0;" edge="1" parent="1" source="t6AkbpVWKmdAS4iG69or-2" target="t6AkbpVWKmdAS4iG69or-5">
          <mxGeometry relative="1" as="geometry" />
        </mxCell>
        <mxCell id="t6AkbpVWKmdAS4iG69or-16" style="edgeStyle=orthogonalEdgeStyle;rounded=0;orthogonalLoop=1;jettySize=auto;html=1;exitX=1;exitY=0.5;exitDx=0;exitDy=0;entryX=0;entryY=0.5;entryDx=0;entryDy=0;" edge="1" parent="1" source="t6AkbpVWKmdAS4iG69or-2" target="t6AkbpVWKmdAS4iG69or-6">
          <mxGeometry relative="1" as="geometry">
            <mxPoint x="160" y="240" as="targetPoint" />
          </mxGeometry>
        </mxCell>
        <mxCell id="t6AkbpVWKmdAS4iG69or-2" value="Verified?" style="rhombus;whiteSpace=wrap;html=1;" vertex="1" parent="1">
          <mxGeometry x="-55" y="300" width="80" height="70" as="geometry" />
        </mxCell>
        <mxCell id="t6AkbpVWKmdAS4iG69or-4" value="Accounts DataBase" style="text;html=1;align=center;verticalAlign=middle;whiteSpace=wrap;rounded=0;" vertex="1" parent="1">
          <mxGeometry x="110" y="360" width="130" height="30" as="geometry" />
        </mxCell>
        <mxCell id="t6AkbpVWKmdAS4iG69or-17" style="edgeStyle=orthogonalEdgeStyle;rounded=0;orthogonalLoop=1;jettySize=auto;html=1;exitX=0;exitY=1;exitDx=0;exitDy=0;" edge="1" parent="1" source="t6AkbpVWKmdAS4iG69or-5">
          <mxGeometry relative="1" as="geometry">
            <mxPoint x="-260" y="620" as="targetPoint" />
          </mxGeometry>
        </mxCell>
        <mxCell id="t6AkbpVWKmdAS4iG69or-22" style="edgeStyle=orthogonalEdgeStyle;rounded=0;orthogonalLoop=1;jettySize=auto;html=1;exitX=0.25;exitY=1;exitDx=0;exitDy=0;entryX=0.5;entryY=0;entryDx=0;entryDy=0;" edge="1" parent="1" source="t6AkbpVWKmdAS4iG69or-5" target="t6AkbpVWKmdAS4iG69or-19">
          <mxGeometry relative="1" as="geometry" />
        </mxCell>
        <mxCell id="t6AkbpVWKmdAS4iG69or-23" style="edgeStyle=orthogonalEdgeStyle;rounded=0;orthogonalLoop=1;jettySize=auto;html=1;exitX=0.75;exitY=1;exitDx=0;exitDy=0;entryX=0.5;entryY=0;entryDx=0;entryDy=0;" edge="1" parent="1" source="t6AkbpVWKmdAS4iG69or-5" target="t6AkbpVWKmdAS4iG69or-20">
          <mxGeometry relative="1" as="geometry" />
        </mxCell>
        <mxCell id="t6AkbpVWKmdAS4iG69or-24" style="edgeStyle=orthogonalEdgeStyle;rounded=0;orthogonalLoop=1;jettySize=auto;html=1;exitX=1;exitY=1;exitDx=0;exitDy=0;entryX=0.5;entryY=0;entryDx=0;entryDy=0;" edge="1" parent="1" source="t6AkbpVWKmdAS4iG69or-5" target="t6AkbpVWKmdAS4iG69or-21">
          <mxGeometry relative="1" as="geometry" />
        </mxCell>
        <mxCell id="t6AkbpVWKmdAS4iG69or-5" value="Home Page" style="rounded=1;whiteSpace=wrap;html=1;" vertex="1" parent="1">
          <mxGeometry x="-75" y="480" width="120" height="60" as="geometry" />
        </mxCell>
        <mxCell id="t6AkbpVWKmdAS4iG69or-10" style="edgeStyle=orthogonalEdgeStyle;rounded=0;orthogonalLoop=1;jettySize=auto;html=1;exitX=0.5;exitY=1;exitDx=0;exitDy=0;entryX=1;entryY=0.5;entryDx=0;entryDy=0;" edge="1" parent="1" source="t6AkbpVWKmdAS4iG69or-6" target="t6AkbpVWKmdAS4iG69or-4">
          <mxGeometry relative="1" as="geometry" />
        </mxCell>
        <mxCell id="t6AkbpVWKmdAS4iG69or-6" value="Sign Up" style="rounded=1;whiteSpace=wrap;html=1;" vertex="1" parent="1">
          <mxGeometry x="190" y="160" width="150" height="60" as="geometry" />
        </mxCell>
        <mxCell id="t6AkbpVWKmdAS4iG69or-8" style="edgeStyle=orthogonalEdgeStyle;rounded=0;orthogonalLoop=1;jettySize=auto;html=1;exitX=0.5;exitY=1;exitDx=0;exitDy=0;entryX=0.5;entryY=0;entryDx=0;entryDy=0;" edge="1" parent="1" source="t6AkbpVWKmdAS4iG69or-7" target="t6AkbpVWKmdAS4iG69or-1">
          <mxGeometry relative="1" as="geometry" />
        </mxCell>
        <mxCell id="t6AkbpVWKmdAS4iG69or-9" style="edgeStyle=orthogonalEdgeStyle;rounded=0;orthogonalLoop=1;jettySize=auto;html=1;exitX=0.5;exitY=1;exitDx=0;exitDy=0;entryX=0.5;entryY=0;entryDx=0;entryDy=0;" edge="1" parent="1" source="t6AkbpVWKmdAS4iG69or-7" target="t6AkbpVWKmdAS4iG69or-6">
          <mxGeometry relative="1" as="geometry" />
        </mxCell>
        <mxCell id="t6AkbpVWKmdAS4iG69or-7" value="Welcoming Page" style="rounded=1;whiteSpace=wrap;html=1;" vertex="1" parent="1">
          <mxGeometry x="70" y="70" width="120" height="60" as="geometry" />
        </mxCell>
        <mxCell id="t6AkbpVWKmdAS4iG69or-12" value="Data Stored in Database" style="text;html=1;align=center;verticalAlign=middle;whiteSpace=wrap;rounded=0;" vertex="1" parent="1">
          <mxGeometry x="280" y="260" width="60" height="30" as="geometry" />
        </mxCell>
        <mxCell id="t6AkbpVWKmdAS4iG69or-14" value="Yes" style="text;html=1;align=center;verticalAlign=middle;whiteSpace=wrap;rounded=0;" vertex="1" parent="1">
          <mxGeometry x="-15" y="390" width="60" height="30" as="geometry" />
        </mxCell>
        <mxCell id="t6AkbpVWKmdAS4iG69or-15" value="No" style="text;html=1;align=center;verticalAlign=middle;whiteSpace=wrap;rounded=0;" vertex="1" parent="1">
          <mxGeometry y="280" width="60" height="30" as="geometry" />
        </mxCell>
        <mxCell id="t6AkbpVWKmdAS4iG69or-25" style="edgeStyle=orthogonalEdgeStyle;rounded=0;orthogonalLoop=1;jettySize=auto;html=1;" edge="1" parent="1" source="t6AkbpVWKmdAS4iG69or-18">
          <mxGeometry relative="1" as="geometry">
            <mxPoint x="-40" y="830" as="targetPoint" />
            <Array as="points">
              <mxPoint x="-270" y="830" />
            </Array>
          </mxGeometry>
        </mxCell>
        <mxCell id="t6AkbpVWKmdAS4iG69or-18" value="Register New Books" style="rounded=1;whiteSpace=wrap;html=1;" vertex="1" parent="1">
          <mxGeometry x="-330" y="620" width="120" height="60" as="geometry" />
        </mxCell>
        <mxCell id="t6AkbpVWKmdAS4iG69or-26" style="edgeStyle=orthogonalEdgeStyle;rounded=0;orthogonalLoop=1;jettySize=auto;html=1;exitX=0.5;exitY=1;exitDx=0;exitDy=0;" edge="1" parent="1" source="t6AkbpVWKmdAS4iG69or-19">
          <mxGeometry relative="1" as="geometry">
            <mxPoint x="60" y="790" as="targetPoint" />
          </mxGeometry>
        </mxCell>
        <mxCell id="t6AkbpVWKmdAS4iG69or-19" value="Lending Books" style="rounded=1;whiteSpace=wrap;html=1;" vertex="1" parent="1">
          <mxGeometry x="-160" y="620" width="120" height="60" as="geometry" />
        </mxCell>
        <mxCell id="t6AkbpVWKmdAS4iG69or-28" style="edgeStyle=orthogonalEdgeStyle;rounded=0;orthogonalLoop=1;jettySize=auto;html=1;exitX=0.5;exitY=1;exitDx=0;exitDy=0;entryX=0.75;entryY=0;entryDx=0;entryDy=0;" edge="1" parent="1" source="t6AkbpVWKmdAS4iG69or-20" target="t6AkbpVWKmdAS4iG69or-27">
          <mxGeometry relative="1" as="geometry" />
        </mxCell>
        <mxCell id="t6AkbpVWKmdAS4iG69or-20" value="Book Submission" style="rounded=1;whiteSpace=wrap;html=1;" vertex="1" parent="1">
          <mxGeometry x="10" y="620" width="120" height="50" as="geometry" />
        </mxCell>
        <mxCell id="t6AkbpVWKmdAS4iG69or-29" style="edgeStyle=orthogonalEdgeStyle;rounded=0;orthogonalLoop=1;jettySize=auto;html=1;exitX=0.5;exitY=1;exitDx=0;exitDy=0;entryX=1;entryY=0.5;entryDx=0;entryDy=0;" edge="1" parent="1" source="t6AkbpVWKmdAS4iG69or-21" target="t6AkbpVWKmdAS4iG69or-27">
          <mxGeometry relative="1" as="geometry" />
        </mxCell>
        <mxCell id="t6AkbpVWKmdAS4iG69or-21" value="Check For Availability&lt;div&gt;&lt;br&gt;&lt;/div&gt;" style="rounded=1;whiteSpace=wrap;html=1;" vertex="1" parent="1">
          <mxGeometry x="180" y="620" width="140" height="60" as="geometry" />
        </mxCell>
        <mxCell id="t6AkbpVWKmdAS4iG69or-27" value="changes in Book Database" style="rounded=1;whiteSpace=wrap;html=1;" vertex="1" parent="1">
          <mxGeometry x="-10" y="800" width="180" height="60" as="geometry" />
        </mxCell>
      </root>
    </mxGraphModel>
  </diagram>
</mxfile>
